TITLE ""
FILE "Disc6Track04.mp3" MP3
  TRACK 01 AUDIO
    TITLE "Disc6Track04_01"
    INDEX 01 00:00:00
  TRACK 02 AUDIO
    TITLE "Disc6Track04_02"
    INDEX 01 00:00:69
  TRACK 03 AUDIO
    TITLE "Disc6Track04_03"
    INDEX 01 00:01:65
  TRACK 04 AUDIO
    TITLE "Disc6Track04_04"
    INDEX 01 00:02:72
  TRACK 05 AUDIO
    TITLE "Disc6Track04_05"
    INDEX 01 00:03:36
  TRACK 06 AUDIO
    TITLE "Disc6Track04_06"
    INDEX 01 00:04:45
  TRACK 07 AUDIO
    TITLE "Disc6Track04_07"
    INDEX 01 00:06:34
  TRACK 08 AUDIO
    TITLE "Disc6Track04_08"
    INDEX 01 00:07:44
  TRACK 09 AUDIO
    TITLE "Disc6Track04_09"
    INDEX 01 00:11:65
  TRACK 10 AUDIO
    TITLE "Disc6Track04_10"
    INDEX 01 00:12:21
  TRACK 11 AUDIO
    TITLE "Disc6Track04_11"
    INDEX 01 00:13:42
  TRACK 12 AUDIO
    TITLE "Disc6Track04_12"
    INDEX 01 00:14:73
  TRACK 13 AUDIO
    TITLE "Disc6Track04_13"
    INDEX 01 00:16:21
  TRACK 14 AUDIO
    TITLE "Disc6Track04_14"
    INDEX 01 00:16:58
  TRACK 15 AUDIO
    TITLE "Disc6Track04_15"
    INDEX 01 00:17:64
  TRACK 16 AUDIO
    TITLE "Disc6Track04_16"
    INDEX 01 00:18:57
  TRACK 17 AUDIO
    TITLE "Disc6Track04_17"
    INDEX 01 00:19:63
  TRACK 18 AUDIO
    TITLE "Disc6Track04_18"
    INDEX 01 00:24:66
  TRACK 19 AUDIO
    TITLE "Disc6Track04_19"
    INDEX 01 00:25:20
  TRACK 20 AUDIO
    TITLE "Disc6Track04_20"
    INDEX 01 00:26:31
  TRACK 21 AUDIO
    TITLE "Disc6Track04_21"
    INDEX 01 00:28:16
  TRACK 22 AUDIO
    TITLE "Disc6Track04_22"
    INDEX 01 00:29:34
  TRACK 23 AUDIO
    TITLE "Disc6Track04_23"
    INDEX 01 00:29:67
  TRACK 24 AUDIO
    TITLE "Disc6Track04_24"
    INDEX 01 00:31:03
  TRACK 25 AUDIO
    TITLE "Disc6Track04_25"
    INDEX 01 00:33:12
  TRACK 26 AUDIO
    TITLE "Disc6Track04_26"
    INDEX 01 00:34:25
  TRACK 27 AUDIO
    TITLE "Disc6Track04_27"
    INDEX 01 00:34:66
  TRACK 28 AUDIO
    TITLE "Disc6Track04_28"
    INDEX 01 00:36:10
  TRACK 29 AUDIO
    TITLE "Disc6Track04_29"
    INDEX 01 00:37:41
  TRACK 30 AUDIO
    TITLE "Disc6Track04_30"
    INDEX 01 00:38:60
  TRACK 31 AUDIO
    TITLE "Disc6Track04_31"
    INDEX 01 00:39:22
  TRACK 32 AUDIO
    TITLE "Disc6Track04_32"
    INDEX 01 00:40:43
  TRACK 33 AUDIO
    TITLE "Disc6Track04_33"
    INDEX 01 00:41:23
  TRACK 34 AUDIO
    TITLE "Disc6Track04_34"
    INDEX 01 00:42:42
  TRACK 35 AUDIO
    TITLE "Disc6Track04_35"
    INDEX 01 00:44:70
  TRACK 36 AUDIO
    TITLE "Disc6Track04_36"
    INDEX 01 00:45:27
  TRACK 37 AUDIO
    TITLE "Disc6Track04_37"
    INDEX 01 00:46:40
  TRACK 38 AUDIO
    TITLE "Disc6Track04_38"
    INDEX 01 00:47:51
  TRACK 39 AUDIO
    TITLE "Disc6Track04_39"
    INDEX 01 00:48:64
  TRACK 40 AUDIO
    TITLE "Disc6Track04_40"
    INDEX 01 00:51:29
  TRACK 41 AUDIO
    TITLE "Disc6Track04_41"
    INDEX 01 00:51:59
  TRACK 42 AUDIO
    TITLE "Disc6Track04_42"
    INDEX 01 00:53:10
  TRACK 43 AUDIO
    TITLE "Disc6Track04_43"
    INDEX 01 00:54:39
  TRACK 44 AUDIO
    TITLE "Disc6Track04_44"
    INDEX 01 00:55:66
  TRACK 45 AUDIO
    TITLE "Disc6Track04_45"
    INDEX 01 00:56:28
  TRACK 46 AUDIO
    TITLE "Disc6Track04_46"
    INDEX 01 00:57:63
  TRACK 47 AUDIO
    TITLE "Disc6Track04_47"
    INDEX 01 00:59:21
  TRACK 48 AUDIO
    TITLE "Disc6Track04_48"
    INDEX 01 01:00:54
  TRACK 49 AUDIO
    TITLE "Disc6Track04_49"
    INDEX 01 01:03:17
  TRACK 50 AUDIO
    TITLE "Disc6Track04_50"
    INDEX 01 01:03:46
  TRACK 51 AUDIO
    TITLE "Disc6Track04_51"
    INDEX 01 01:04:65
  TRACK 52 AUDIO
    TITLE "Disc6Track04_52"
    INDEX 01 01:06:68
  TRACK 53 AUDIO
    TITLE "Disc6Track04_53"
    INDEX 01 01:08:08
  TRACK 54 AUDIO
    TITLE "Disc6Track04_54"
    INDEX 01 01:11:08
  TRACK 55 AUDIO
    TITLE "Disc6Track04_55"
    INDEX 01 01:11:38
  TRACK 56 AUDIO
    TITLE "Disc6Track04_56"
    INDEX 01 01:12:43
  TRACK 57 AUDIO
    TITLE "Disc6Track04_57"
    INDEX 01 01:14:18
  TRACK 58 AUDIO
    TITLE "Disc6Track04_58"
    INDEX 01 01:15:24
  TRACK 59 AUDIO
    TITLE "Disc6Track04_59"
    INDEX 01 01:19:35
  TRACK 60 AUDIO
    TITLE "Disc6Track04_60"
    INDEX 01 01:19:65
  TRACK 61 AUDIO
    TITLE "Disc6Track04_61"
    INDEX 01 01:21:03
  TRACK 62 AUDIO
    TITLE "Disc6Track04_62"
    INDEX 01 01:23:64
  TRACK 63 AUDIO
    TITLE "Disc6Track04_63"
    INDEX 01 01:25:03
  TRACK 64 AUDIO
    TITLE "Disc6Track04_64"
    INDEX 01 01:25:38
  TRACK 65 AUDIO
    TITLE "Disc6Track04_65"
    INDEX 01 01:26:61
  TRACK 66 AUDIO
    TITLE "Disc6Track04_66"
    INDEX 01 01:29:42
  TRACK 67 AUDIO
    TITLE "Disc6Track04_67"
    INDEX 01 01:30:66
  TRACK 68 AUDIO
    TITLE "Disc6Track04_68"
    INDEX 01 01:34:54
